<svg width="40" height="40" viewBox="0 0 40 40" fill="none" xmlns="http://www.w3.org/2000/svg">
<path d="M25.1481 22.3881V9.22813C25.1481 7.90412 24.0721 6.82812 22.7481 6.82812H7.0521C5.7281 6.82812 4.6521 7.90412 4.6521 9.22813V22.3921C4.6521 23.7161 5.7281 24.7921 7.0521 24.7921H9.0001V26.9361C9.0001 27.3881 9.2521 27.8001 9.6561 28.0041C9.8281 28.0921 10.0161 28.1361 10.2001 28.1361C10.4481 28.1361 10.6961 28.0601 10.9041 27.9081L15.2001 24.7881H22.7481C24.0721 24.7881 25.1481 23.7121 25.1481 22.3881Z" fill="#4E6EF2"/>
<path d="M32.948 12.0679H26.52V24.3239C26.52 25.2079 25.804 25.9239 24.92 25.9239H18.032V27.5119C18.032 28.8359 19.108 29.9119 20.432 29.9119H24.028L28.308 32.9519C28.516 33.0999 28.76 33.1759 29.004 33.1759C29.212 33.1759 29.42 33.1239 29.608 33.0119C29.984 32.7959 30.204 32.3839 30.204 31.9519V30.0839H32.948C34.272 30.0839 35.348 29.0079 35.348 27.6839V14.4679C35.348 13.1439 34.272 12.0679 32.948 12.0679Z" fill="#00C8C8"/>
</svg>
