<svg width="40" height="40" viewBox="0 0 40 40" fill="none" xmlns="http://www.w3.org/2000/svg">
<path d="M17.444 8H10.6989C9.76622 8 9 8.70935 9 9.69242V16.412C9 17.3411 9.71205 18.1044 10.6989 18.1044H17.444C18.3766 18.1044 19.1428 17.3951 19.1428 16.412V9.69242C19.1467 8.76333 18.3766 8 17.444 8ZM23.0397 18.1083H29.7848C30.7174 18.1083 31.4837 17.3989 31.4837 16.4159V9.69242C31.4875 8.76333 30.7716 8 29.7848 8H23.0397C22.1071 8 21.3409 8.70935 21.3409 9.69242V16.412C21.395 17.345 22.1071 18.1083 23.0397 18.1083ZM17.444 20.8956H10.6989C9.76622 20.8956 9 21.6049 9 22.588V29.3076C9 30.2367 9.71205 31 10.6989 31H17.444C18.3766 31 19.1428 30.2906 19.1428 29.3076V22.588C19.1467 21.6049 18.3766 20.8956 17.444 20.8956ZM31.9248 30.0208L30.1138 28.2166C30.6091 27.5072 30.88 26.5781 30.88 25.649C30.88 23.0275 28.74 20.8956 26.1085 20.8956C23.477 20.8956 21.337 23.0275 21.337 25.649C21.337 28.2705 23.477 30.4024 26.1124 30.4024C27.3739 30.4024 28.4691 29.909 29.2934 29.1457L30.9922 30.8381C31.1006 30.946 31.267 30.946 31.4295 30.8381L31.8668 30.4024C32.0332 30.2945 32.0332 30.1287 31.9248 30.0208ZM28.8522 28.0546L28.798 28.1626C28.1401 28.818 27.2075 29.2536 26.1665 29.2536C24.1387 29.2536 22.4902 27.6152 22.4902 25.5912C22.4902 23.5672 24.1349 21.9288 26.1665 21.9288C28.1982 21.9288 29.8429 23.5672 29.8429 25.5912C29.7848 26.5781 29.4559 27.4532 28.8522 28.0546Z" fill="#00C8C8"/>
<path d="M17.2623 8H10.6623C9.74974 8 9 8.70935 9 9.69242V16.412C9 17.3411 9.69673 18.1044 10.6623 18.1044H17.2623C18.1749 18.1044 18.9246 17.3951 18.9246 16.412V9.69242C18.9284 8.76333 18.1749 8 17.2623 8ZM22.7377 18.1083H29.3377C30.2502 18.1083 31 17.3989 31 16.4159V9.69242C31.0038 8.76333 30.3033 8 29.3377 8H22.7377C21.8251 8 21.0754 8.70935 21.0754 9.69242V16.412C21.1284 17.345 21.8251 18.1083 22.7377 18.1083ZM17.2623 20.8956H10.6623C9.74974 20.8956 9 21.6049 9 22.588V29.3076C9 30.2367 9.69673 31 10.6623 31H17.2623C18.1749 31 18.9246 30.2906 18.9246 29.3076V22.588C18.9284 21.6049 18.1749 20.8956 17.2623 20.8956Z" fill="#4E6EF2"/>
</svg>
