<svg width="40" height="40" viewBox="0 0 40 40" fill="none" xmlns="http://www.w3.org/2000/svg">
<path d="M11.6667 13H6.66667C6.22464 13 5.80072 13.1712 5.48816 13.476C5.17559 13.7807 5 14.194 5 14.625V17.875C5 18.306 5.17559 18.7193 5.48816 19.024C5.80072 19.3288 6.22464 19.5 6.66667 19.5H10C10.442 19.5 10.866 19.6712 11.1785 19.976C11.4911 20.2807 11.6667 20.694 11.6667 21.125V24.375C11.6667 24.806 11.4911 25.2193 11.1785 25.524C10.866 25.8288 10.442 26 10 26H5M28.3333 13V26M35 13L30 19.5M30 19.5L35 26M30 19.5H28.3333M16.6667 13V26H20C20.8841 26 21.7319 25.6576 22.357 25.0481C22.9821 24.4386 23.3333 23.612 23.3333 22.75V16.25C23.3333 15.388 22.9821 14.5614 22.357 13.9519C21.7319 13.3424 20.8841 13 20 13H16.6667Z" stroke="#00C8C8" stroke-width="3" stroke-linecap="round" stroke-linejoin="round"/>
<path d="M11.5455 13H6.63636C6.20237 13 5.78616 13.1712 5.47928 13.476C5.1724 13.7807 5 14.194 5 14.625V17.875C5 18.306 5.1724 18.7193 5.47928 19.024C5.78616 19.3288 6.20237 19.5 6.63636 19.5H9.90909C10.3431 19.5 10.7593 19.6712 11.0662 19.976C11.3731 20.2807 11.5455 20.694 11.5455 21.125V24.375C11.5455 24.806 11.3731 25.2193 11.0662 25.524C10.7593 25.8288 10.3431 26 9.90909 26H5M16.4545 13V26H19.7273C20.5953 26 21.4277 25.6576 22.0414 25.0481C22.6552 24.4386 23 23.612 23 22.75V16.25C23 15.388 22.6552 14.5614 22.0414 13.9519C21.4277 13.3424 20.5953 13 19.7273 13H16.4545Z" stroke="#4E6EF2" stroke-width="3" stroke-linecap="round" stroke-linejoin="round"/>
</svg>
