<svg width="40" height="40" viewBox="0 0 40 40" fill="none" xmlns="http://www.w3.org/2000/svg">
<path d="M25.5 9C31.299 9 36 13.701 36 19.5C36 25.299 31.299 30 25.5 30C23.4829 30 21.5998 29.4293 20 28.4434C18.4002 29.4293 16.5171 30 14.5 30C8.70101 30 4 25.299 4 19.5C4 13.701 8.70101 9 14.5 9C16.5169 9 18.4003 9.56989 20 10.5557C21.5997 9.56989 23.4831 9 25.5 9Z" fill="#4E6EF2"/>
<path d="M20 10.5566C22.9994 12.4052 25 15.7181 25 19.5C25 23.2819 22.9994 26.5948 20 28.4434C17.0006 26.5948 15 23.2819 15 19.5C15 15.7181 17.0006 12.4052 20 10.5566Z" fill="#00C8C8"/>
</svg>
