<svg width="40" height="40" viewBox="0 0 40 40" fill="none" xmlns="http://www.w3.org/2000/svg">
<path fill-rule="evenodd" clip-rule="evenodd" d="M20.8484 8.35135C20.6234 8.12638 20.3182 8 20 8C19.6818 8 19.3766 8.12638 19.1516 8.35135L15.5515 11.9514C15.3265 12.1765 15.2002 12.4816 15.2002 12.7998C15.2002 13.1181 15.3265 13.4232 15.5515 13.6483L19.1516 17.2483C19.3766 17.4733 19.6818 17.5997 20 17.5997C20.3182 17.5997 20.6234 17.4733 20.8484 17.2483L24.4485 13.6483C24.6735 13.4232 24.7998 13.1181 24.7998 12.7998C24.7998 12.4816 24.6735 12.1765 24.4485 11.9514L20.8484 8.35135ZM19.1516 22.7517C19.3766 22.5267 19.6818 22.4003 20 22.4003C20.3182 22.4003 20.6234 22.5267 20.8484 22.7517L24.4485 26.3517C24.6735 26.5768 24.7998 26.882 24.7998 27.2002C24.7998 27.5184 24.6735 27.8235 24.4485 28.0486L20.8484 31.6487C20.6234 31.8736 20.3182 32 20 32C19.6818 32 19.3766 31.8736 19.1516 31.6487L15.5515 28.0486C15.3265 27.8235 15.2002 27.5184 15.2002 27.2002C15.2002 26.882 15.3265 26.5768 15.5515 26.3517L19.1516 22.7517ZM26.3517 15.5515C26.5768 15.3265 26.882 15.2002 27.2002 15.2002C27.5184 15.2002 27.8235 15.3265 28.0486 15.5515L31.6487 19.1516C31.8736 19.3766 32 19.6818 32 20C32 20.3182 31.8736 20.6234 31.6487 20.8484L28.0486 24.4485C27.8235 24.6735 27.5184 24.7998 27.2002 24.7998C26.882 24.7998 26.5768 24.6735 26.3517 24.4485L22.7517 20.8484C22.5267 20.6234 22.4003 20.3182 22.4003 20C22.4003 19.6818 22.5267 19.3766 22.7517 19.1516L26.3517 15.5515ZM11.9514 15.5515C12.1765 15.3265 12.4816 15.2002 12.7998 15.2002C13.1181 15.2002 13.4232 15.3265 13.6483 15.5515L17.2483 19.1516C17.4733 19.3766 17.5997 19.6818 17.5997 20C17.5997 20.3182 17.4733 20.6234 17.2483 20.8484L13.6483 24.4485C13.4232 24.6735 13.1181 24.7998 12.7998 24.7998C12.4816 24.7998 12.1765 24.6735 11.9514 24.4485L8.35135 20.8484C8.12638 20.6234 8 20.3182 8 20C8 19.6818 8.12638 19.3766 8.35135 19.1516L11.9514 15.5515Z" fill="#00C8C8"/>
<path fill-rule="evenodd" clip-rule="evenodd" d="M20.8484 8.35554C20.6234 8.12789 20.3182 8 20 8C19.6818 8 19.3766 8.12789 19.1516 8.35554L15.5515 11.9985C15.3265 12.2262 15.2002 12.535 15.2002 12.857C15.2002 13.179 15.3265 13.4878 15.5515 13.7156L19.1516 17.3585C19.3766 17.5862 19.6818 17.7141 20 17.7141C20.3182 17.7141 20.6234 17.5862 20.8484 17.3585L24.4485 13.7156C24.6735 13.4878 24.7998 13.179 24.7998 12.857C24.7998 12.535 24.6735 12.2262 24.4485 11.9985L20.8484 8.35554ZM26.3517 15.6415C26.5768 15.4138 26.882 15.2859 27.2002 15.2859C27.5184 15.2859 27.8235 15.4138 28.0486 15.6415L31.6486 19.2844C31.8736 19.5122 32 19.821 32 20.143C32 20.465 31.8736 20.7738 31.6486 21.0015L28.0486 24.6445C27.8235 24.8721 27.5184 25 27.2002 25C26.882 25 26.5768 24.8721 26.3517 24.6445L22.7517 21.0015C22.5267 20.7738 22.4003 20.465 22.4003 20.143C22.4003 19.821 22.5267 19.5122 22.7517 19.2844L26.3517 15.6415ZM11.9514 15.6415C12.1765 15.4138 12.4816 15.2859 12.7998 15.2859C13.1181 15.2859 13.4232 15.4138 13.6483 15.6415L17.2483 19.2844C17.4733 19.5122 17.5997 19.821 17.5997 20.143C17.5997 20.465 17.4733 20.7738 17.2483 21.0015L13.6483 24.6445C13.4232 24.8721 13.1181 25 12.7998 25C12.4816 25 12.1765 24.8721 11.9514 24.6445L8.35135 21.0015C8.12638 20.7738 8 20.465 8 20.143C8 19.821 8.12638 19.5122 8.35135 19.2844L11.9514 15.6415Z" fill="#4E6EF2"/>
</svg>
