<svg width="40" height="40" viewBox="0 0 40 40" fill="none" xmlns="http://www.w3.org/2000/svg">
<path d="M22.4417 29.7545L21.1653 28.4357L25.2532 24.2123C25.7885 23.6593 26.2132 23.0027 26.503 22.2801C26.7927 21.5575 26.9418 20.783 26.9418 20.0009C26.9418 19.2187 26.7927 18.4442 26.503 17.7216C26.2132 16.999 25.7885 16.3424 25.2532 15.7894L21.1653 11.566L22.4417 10.2455C23.2139 9.44801 24.261 9 25.3528 9C26.4447 9 27.4918 9.44801 28.264 10.2455L34.7944 16.9924C35.5664 17.7902 36 18.872 36 20C36 21.128 35.5664 22.2098 34.7944 23.0076L28.264 29.7545C27.4918 30.552 26.4447 31 25.3528 31C24.261 31 23.2139 30.552 22.4417 29.7545ZM24.0887 23.0076C24.8607 22.2098 25.2943 21.128 25.2943 20C25.2943 18.872 24.8607 17.7902 24.0887 16.9924L17.5583 10.2455C16.7861 9.44801 15.739 9 14.6472 9C13.5553 9 12.5082 9.44801 11.736 10.2455L5.20557 16.9924C4.43364 17.7902 4 18.872 4 20C4 21.128 4.43364 22.2098 5.20557 23.0076L11.736 29.7545C12.5082 30.552 13.5553 31 14.6472 31C15.739 31 16.7861 30.552 17.5583 29.7545L24.0887 23.0076Z" fill="#00C8C8"/>
<path d="M24.1397 23.0076C24.9136 22.2098 25.3483 21.128 25.3483 20C25.3483 18.872 24.9136 17.7902 24.1397 16.9924L17.5927 10.2455C16.8186 9.44801 15.7688 9 14.6742 9C13.5796 9 12.5298 9.44801 11.7557 10.2455L5.20863 16.9924C4.43474 17.7902 4 18.872 4 20C4 21.128 4.43474 22.2098 5.20863 23.0076L11.7557 29.7545C12.5298 30.552 13.5796 31 14.6742 31C15.7688 31 16.8186 30.552 17.5927 29.7545L24.1397 23.0076Z" fill="#4E6EF2"/>
</svg>
