<svg width="32" height="20" viewBox="0 0 32 20" fill="none" xmlns="http://www.w3.org/2000/svg">
    <g clip-path="url(#clip0_242_4070)">
        <path d="M10 0C8.68678 -1.90735e-06 7.38642 0.258656 6.17316 0.761204C4.95991 1.26375 3.85752 2.00035 2.92893 2.92893C2.00035 3.85752 1.26375 4.95991 0.761205 6.17317C0.258657 7.38642 -9.53674e-07 8.68678 0 10C0 11.3132 0.258657 12.6136 0.761205 13.8268C1.26375 15.0401 2.00035 16.1425 2.92893 17.0711C3.85752 17.9997 4.95991 18.7362 6.17317 19.2388C7.38642 19.7413 8.68678 20 10 20L10 0Z" fill="#4E6EF2"/>
        <path d="M31.667 8.74228e-07C31.667 1.31322 31.4083 2.61358 30.9058 3.82684C30.4032 5.04009 29.6666 6.14248 28.7381 7.07107C27.8095 7.99965 26.7071 8.73625 25.4938 9.2388C24.2806 9.74134 22.9802 10 21.667 10C20.3538 10 19.0534 9.74134 17.8402 9.2388C16.6269 8.73625 15.5245 7.99965 14.5959 7.07107C13.6673 6.14248 12.9307 5.04009 12.4282 3.82683C11.9256 2.61358 11.667 1.31322 11.667 0L31.667 8.74228e-07Z" fill="#00C8C8"/>
        <path d="M31.667 20C31.667 18.6868 31.4083 17.3864 30.9058 16.1732C30.4032 14.9599 29.6666 13.8575 28.7381 12.9289C27.8095 12.0003 26.7071 11.2638 25.4938 10.7612C24.2806 10.2587 22.9802 10 21.667 10C20.3538 10 19.0534 10.2587 17.8402 10.7612C16.6269 11.2638 15.5245 12.0003 14.5959 12.9289C13.6673 13.8575 12.9307 14.9599 12.4282 16.1732C11.9256 17.3864 11.667 18.6868 11.667 20L31.667 20Z" fill="#4E6EF2"/>
    </g>
    <defs>
        <clipPath id="clip0_242_4070">
            <rect width="32" height="20" fill="white"/>
        </clipPath>
    </defs>
</svg>