<svg width="14" height="14" viewBox="0 0 14 14" fill="none" xmlns="http://www.w3.org/2000/svg">
<g id="mingcute:moon-fill" clip-path="url(#clip0_2383_12678)">
<g id="Group">
<path id="Vector" fill-rule="evenodd" clip-rule="evenodd" d="M7.91818 1.83025C7.81276 1.81165 7.70426 1.82213 7.60434 1.86056C7.50442 1.89898 7.41687 1.96391 7.35107 2.04835C7.28528 2.1328 7.24374 2.23358 7.23091 2.33986C7.21808 2.44614 7.23445 2.55391 7.27826 2.65158C7.56891 3.29902 7.65587 4.01952 7.52761 4.71751C7.39936 5.41551 7.06194 6.05803 6.56012 6.55985C6.0583 7.06167 5.41578 7.39909 4.71778 7.52735C4.01978 7.6556 3.29929 7.56864 2.65185 7.278C2.55415 7.23404 2.44631 7.21755 2.33994 7.2303C2.23356 7.24306 2.13268 7.28458 2.04815 7.3504C1.96361 7.41621 1.89862 7.50383 1.86017 7.60383C1.82172 7.70383 1.81127 7.81242 1.82993 7.91791C2.05825 9.2115 2.76321 10.3725 3.80567 11.1718C4.84812 11.971 6.15232 12.3504 7.46084 12.2351C8.76935 12.1198 9.98711 11.5182 10.8737 10.549C11.7604 9.57972 12.2514 8.31333 12.25 6.99975C12.2501 5.76652 11.8161 4.57263 11.024 3.62739C10.2319 2.68216 9.1324 2.04592 7.91818 1.83025Z" fill="#000311"/>
</g>
</g>
<defs>
<clipPath id="clip0_2383_12678">
<rect width="14" height="14" fill="white"/>
</clipPath>
</defs>
</svg>
