<svg width="18" height="18" viewBox="0 0 18 18" fill="none" xmlns="http://www.w3.org/2000/svg">
<g id="tabler:sun-filled">
<path id="Vector" d="M9.00015 14.25C9.18385 14.25 9.36115 14.3175 9.49842 14.4395C9.6357 14.5616 9.7234 14.7298 9.7449 14.9122L9.75014 15V15.75C9.74993 15.9412 9.67674 16.125 9.54551 16.264C9.41428 16.403 9.23493 16.4867 9.0441 16.4979C8.85327 16.5091 8.66536 16.447 8.51877 16.3243C8.37218 16.2016 8.27797 16.0276 8.2554 15.8378L8.25015 15.75V15C8.25015 14.8011 8.32916 14.6103 8.46982 14.4697C8.61047 14.329 8.80123 14.25 9.00015 14.25ZM13.7349 12.6825L13.8054 12.7448L14.3304 13.2698C14.4649 13.4047 14.543 13.5858 14.5488 13.7763C14.5546 13.9668 14.4877 14.1523 14.3617 14.2952C14.2357 14.4381 14.06 14.5277 13.8703 14.5458C13.6806 14.5639 13.4911 14.5091 13.3404 14.3925L13.2699 14.3302L12.7449 13.8053C12.6155 13.6761 12.5377 13.504 12.5262 13.3215C12.5148 13.139 12.5704 12.9586 12.6826 12.8142C12.7948 12.6698 12.956 12.5714 13.1357 12.5375C13.3154 12.5036 13.5013 12.5365 13.6584 12.63L13.7349 12.6825ZM5.2554 12.7448C5.38453 12.8739 5.4621 13.0457 5.47356 13.228C5.48502 13.4103 5.42958 13.5904 5.31765 13.7347L5.2554 13.8053L4.7304 14.3302C4.59543 14.4648 4.41432 14.5429 4.22386 14.5487C4.0334 14.5545 3.84786 14.4876 3.70494 14.3616C3.56201 14.2355 3.47242 14.0598 3.45435 13.8701C3.43628 13.6805 3.49109 13.491 3.60765 13.3403L3.6699 13.2698L4.1949 12.7448C4.33554 12.6041 4.52627 12.5252 4.72515 12.5252C4.92402 12.5252 5.11475 12.6041 5.2554 12.7448ZM3.00015 8.25C3.19131 8.25021 3.37517 8.32341 3.51417 8.45464C3.65317 8.58586 3.73682 8.76521 3.74802 8.95605C3.75923 9.14688 3.69714 9.33478 3.57445 9.48137C3.45175 9.62796 3.27772 9.72217 3.0879 9.74475L3.00015 9.75H2.25015C2.05899 9.74979 1.87512 9.67659 1.73612 9.54536C1.59712 9.41414 1.51347 9.23479 1.50227 9.04395C1.49106 8.85312 1.55315 8.66522 1.67584 8.51863C1.79854 8.37204 1.97257 8.27783 2.1624 8.25525L2.25015 8.25H3.00015ZM15.7501 8.25C15.9413 8.25021 16.1252 8.32341 16.2642 8.45464C16.4032 8.58586 16.4868 8.76521 16.498 8.95605C16.5092 9.14688 16.4471 9.33478 16.3244 9.48137C16.2018 9.62796 16.0277 9.72217 15.8379 9.74475L15.7501 9.75H15.0001C14.809 9.74979 14.6251 9.67659 14.4861 9.54536C14.3471 9.41414 14.2635 9.23479 14.2523 9.04395C14.2411 8.85312 14.3032 8.66522 14.4258 8.51863C14.5485 8.37204 14.7226 8.27783 14.9124 8.25525L15.0001 8.25H15.7501ZM4.6599 3.6075L4.7304 3.66975L5.2554 4.19475C5.38991 4.32972 5.468 4.51083 5.47382 4.70129C5.47963 4.89175 5.41273 5.07728 5.28671 5.22021C5.16068 5.36313 4.98498 5.45273 4.79529 5.4708C4.6056 5.48887 4.41614 5.43406 4.2654 5.3175L4.1949 5.25525L3.6699 4.73025C3.54096 4.60101 3.46359 4.42918 3.4523 4.24697C3.441 4.06477 3.49654 3.8847 3.60852 3.74052C3.72049 3.59634 3.88121 3.49795 4.06055 3.46379C4.23988 3.42964 4.42551 3.46207 4.58265 3.555L4.6599 3.6075ZM14.3304 3.66975C14.4595 3.79889 14.5371 3.97072 14.5486 4.15299C14.56 4.33526 14.5046 4.51545 14.3926 4.65975L14.3304 4.73025L13.8054 5.25525C13.6704 5.38976 13.4893 5.46786 13.2989 5.47367C13.1084 5.47949 12.9229 5.41259 12.7799 5.28656C12.637 5.16054 12.5474 4.98484 12.5293 4.79514C12.5113 4.60545 12.5661 4.41599 12.6826 4.26525L12.7449 4.19475L13.2699 3.66975C13.4105 3.52915 13.6013 3.45016 13.8001 3.45016C13.999 3.45016 14.1897 3.52915 14.3304 3.66975ZM9.00015 1.5C9.18385 1.50002 9.36115 1.56747 9.49842 1.68954C9.6357 1.81161 9.7234 1.97981 9.7449 2.16225L9.75014 2.25V3C9.74993 3.19116 9.67674 3.37502 9.54551 3.51403C9.41428 3.65303 9.23493 3.73668 9.0441 3.74788C8.85327 3.75908 8.66536 3.69699 8.51877 3.5743C8.37218 3.45161 8.27797 3.27757 8.2554 3.08775L8.25015 3V2.25C8.25015 2.05109 8.32916 1.86032 8.46982 1.71967C8.61047 1.57902 8.80123 1.5 9.00015 1.5ZM9.00015 5.25C9.7349 5.24996 10.4535 5.46577 11.0666 5.87062C11.6798 6.27548 12.1605 6.85155 12.4491 7.52727C12.7376 8.20299 12.8213 8.9486 12.6898 9.67148C12.5582 10.3944 12.2172 11.0627 11.709 11.5934C11.2009 12.1241 10.548 12.4939 9.83154 12.6567C9.11506 12.8196 8.36652 12.7684 7.6789 12.5094C6.99127 12.2505 6.39486 11.7953 5.96374 11.2003C5.53262 10.6053 5.28578 9.89682 5.2539 9.16275L5.25015 9L5.2539 8.83725C5.29584 7.87181 5.70885 6.95983 6.40681 6.29149C7.10477 5.62316 8.0338 5.25006 9.00015 5.25Z" fill="white" fill-opacity="0.8"/>
</g>
</svg>
