<svg width="21" height="14" viewBox="0 0 21 14" fill="none" xmlns="http://www.w3.org/2000/svg">
<path d="M3.58874 7.11181C3.58874 7.10632 3.58874 7.1022 3.58874 7.09672C3.58874 5.02518 5.38899 3.34601 7.60989 3.34601C9.83079 3.34601 11.631 5.02518 11.631 7.09672C11.631 7.1022 15.2183 7.1022 15.2183 7.09672C15.2168 3.17727 11.8105 0 7.60842 0C3.40636 0 0 3.17727 0 7.09672C0 7.1022 0 7.10632 0 7.11181H3.58874Z" fill="black"/>
<path d="M2.01646 14H1.57375C0.70451 14 0 13.3429 0 12.5321V7.11182H3.59021V12.5321C3.59021 13.3429 2.8857 14 2.01646 14Z" fill="black"/>
<path d="M13.4269 8.75126C14.4154 8.75126 15.2168 8.00376 15.2168 7.08168C15.2168 6.1596 14.4154 5.41211 13.4269 5.41211C12.4383 5.41211 11.6369 6.1596 11.6369 7.08168C11.6369 8.00376 12.4383 8.75126 13.4269 8.75126Z" fill="black"/>
<path d="M17.4127 6.88818C17.4127 6.89367 17.4127 6.89779 17.4127 6.90327C17.4127 8.97481 15.6125 10.654 13.3916 10.654C11.1707 10.654 9.37041 8.97481 9.37041 6.90327C9.37041 6.89779 5.78314 6.89779 5.78314 6.90327C5.78314 10.8227 9.1895 14 13.3916 14C17.5936 14 21 10.8227 21 6.90327C21 6.89779 21 6.89367 21 6.88818H17.4127Z" fill="black"/>
<path d="M18.9835 0H19.4262C20.2955 0 21 0.657129 21 1.46791V6.88819H17.4098V1.46791C17.4098 0.657129 18.1143 0 18.9835 0Z" fill="black"/>
<path d="M7.57456 8.58793C8.56313 8.58793 9.36452 7.84043 9.36452 6.91835C9.36452 5.99627 8.56313 5.24878 7.57456 5.24878C6.586 5.24878 5.78461 5.99627 5.78461 6.91835C5.78461 7.84043 6.586 8.58793 7.57456 8.58793Z" fill="black"/>
</svg>
